PathFileType	4	(X/Y/Z)	Patient4_TMGait_0pt4_01_left_20.trc.trc
DataRate	CameraRate	NumFrames	NumMarkers	Units	OrigDataRate	OrigDataStartFrame	OrigNumFrames
80.924855491329	80.924855491329	7	33	mm	80.924855491329	71	       141
Frame#	Time	Sacral			L.Shoulder			Chest			R.Shoulder			Neck			R.ASIS			L.ASIS			R.Thigh.Superior			R.Thigh.Lateral			R.Thigh.Inferior			R.Patella			L.Thigh.Superior			L.Thigh.Lateral			L.Thigh.Inferior			L.Patella			L.Shank.Superior			L.Shank.Lateral			L.Shank.Inferior			R.Shank.Superior			R.Shank.Lateral			R.Shank.Inferior			R.Heel			R.Midfoot.Superior			R.Midfoot.Lateral			R.Toe			L.Heel			L.Midfoot.Lateral			L.Midfoot.Superior			L.Toe			L.Elbow			L.Wrist			R.Elbow			R.Wrist			
		X1	Y1	Z1	X2	Y2	Z2	X3	Y3	Z3	X4	Y4	Z4	X5	Y5	Z5	X6	Y6	Z6	X7	Y7	Z7	X8	Y8	Z8	X9	Y9	Z9	X10	Y10	Z10	X11	Y11	Z11	X12	Y12	Z12	X13	Y13	Z13	X14	Y14	Z14	X15	Y15	Z15	X16	Y16	Z16	X17	Y17	Z17	X18	Y18	Z18	X19	Y19	Z19	X20	Y20	Z20	X21	Y21	Z21	X22	Y22	Z22	X23	Y23	Z23	X24	Y24	Z24	X25	Y25	Z25	X26	Y26	Z26	X27	Y27	Z27	X28	Y28	Z28	X29	Y29	Z29	X30	Y30	Z30	X31	Y31	Z31	X32	Y32	Z32	X33	Y33	Z33	

71	24.795000000000	609.749325836633	1010.850889595180	395.217865263828	814.271853756449	1421.102758313154	194.863232504993	907.929923868087	1361.409733446054	364.450711432584	819.930653770460	1452.885697570001	528.288632306348	796.655341617082	1494.452249416825	355.357540311099	830.876252957128	947.497967459234	527.603016646910	831.922532476882	959.767214087939	252.277001330561	898.029780823160	767.335472274748	512.057331813542	846.313233523409	653.609023363022	594.684387406376	936.169870860647	607.735591638615	520.531563113518	965.622948661967	523.696742671185	546.169247887483	846.219606648420	736.632001592625	283.161395581338	740.230431919974	635.267292283771	217.374589953667	806.250143503474	546.180365472919	282.525313901564	794.489219672021	480.266035624580	292.063293340726	764.489670260635	412.270876231082	282.881669727062	666.947529688413	304.475626032320	229.757259255775	708.857687850648	190.084874636279	303.304292558654	938.863636472336	435.848847911964	558.665222946841	870.822315580510	333.151334889403	626.399353069157	929.884653258531	236.880794333629	581.342993990258	815.594475781575	62.182806530577	558.914399900146	985.416308460916	118.219513852249	602.619306471975	897.592855917742	52.307794099145	634.671840813956	1103.097213857743	67.325721421360	631.270575122851	572.896419346414	38.865311814278	346.474097493177	646.898961568315	34.681553489213	265.674873721909	731.071730737088	94.360907325491	292.726752734780	859.112121275273	41.452639992446	264.595149967112	787.862086214986	1122.164253338711	0.481678799008	974.477305837254	962.291769515621	-97.572052749096	721.434615949917	1139.758395629484	684.818809238591	759.724805338612	895.606794861612	768.319046576247	
72	24.807357142857	611.807586828208	1009.660348912206	397.117950810328	815.152306990017	1420.584358972198	197.169490850813	908.942310605821	1360.890512081565	366.655771479038	820.888600602343	1452.140917880280	530.580497397021	797.267742112545	1493.686625202734	357.828737365963	832.842838839906	946.513667328892	529.611153835050	833.835335656385	959.152701001790	254.102625042246	898.471653394873	764.974708337434	514.115190586618	845.073693342533	651.227525746726	595.864352547670	934.791995277324	605.256063446471	521.645247502081	963.737109479208	522.709072600258	546.042674795211	846.414873048749	735.536674917600	284.800962682074	739.437910162144	635.046320829895	218.496361017426	804.442007993374	545.380853536944	283.591612584236	792.150897729640	479.435060886129	292.920215693434	761.778553946666	411.676621231202	283.670368176098	663.540961527220	304.596978771760	230.294370456143	704.626848826245	189.747295083956	303.572649328558	939.636266928306	434.635336047548	558.555069662921	874.667478443557	329.715476578896	626.100492980864	936.656355880886	235.337561863557	580.555197650221	827.445288574208	57.374965193349	558.447466600198	996.330953377220	117.509035782845	600.491485352181	910.688200501600	48.941623390247	633.167405996064	1115.825812517885	69.536197458696	627.074410949413	567.958255109863	38.904735649167	346.431300798275	641.936634562552	34.684160795088	265.689787927308	726.122085507030	94.309596149570	292.785907183134	854.132450252279	41.361650825169	264.596806518446	789.944631208358	1122.839404174193	1.281145792241	977.795639939977	964.982313442873	-97.523418546503	721.612297028369	1139.604836845482	687.385167123238	759.648851206701	896.115232009130	772.863080829431	
73	24.819714285714	614.100363506349	1008.288301994458	399.306858885430	815.864107067747	1420.026595835011	199.671816864372	909.922219831774	1360.382789450180	369.000928180303	821.849705328590	1451.315441798540	533.079924439502	797.795868075297	1492.852569535052	360.509670045449	835.094952611630	945.435600957795	531.742058062239	835.933443065598	958.474067949647	256.080618135681	899.424691224803	762.639447814026	516.282509026521	844.221227225817	648.665277403159	596.763503702754	933.944443375157	602.837368446205	522.587903383761	962.052762764809	521.412055913902	545.623769538108	846.940374771635	734.394942428978	286.518328618822	738.970790233304	634.761348054213	219.781044126600	803.032475751762	544.526177425061	284.777393148488	790.251424350512	478.487870424280	293.891832261116	759.394699745372	410.970550701598	284.559192226136	660.330830248280	304.726132814830	230.931108359294	700.493121380984	189.359858727731	303.883729231644	940.187922217207	433.024251748507	558.087668314937	877.480791592177	326.320335582644	625.058994523945	941.834788762867	233.562198094302	579.101506251917	836.592003412275	53.339128440510	556.984723148102	1004.685630599199	116.458001678896	597.589014880334	920.790300309368	46.037151151988	630.849352382035	1125.562458177278	70.729653100935	622.518415090109	563.012585851269	38.915380701073	346.387265830634	636.972827521555	34.670591673207	265.714736955585	721.166280308346	94.265672338601	292.852758262035	849.156856657459	41.254948529608	264.596628927811	791.812673760777	1123.304387686416	2.490970345751	980.747018644391	967.270635594295	-97.002939715942	722.241968863597	1139.210960840698	690.161194523191	760.397200664355	896.356491025408	777.328076180794	
74	24.832071428571	616.605475428107	1006.756937478837	401.786434468643	816.404089254385	1419.424487629612	202.370445077511	910.873900705678	1359.894939376323	371.487044666900	822.808813601807	1450.413695046835	535.786384697650	798.243964101720	1491.955541319637	363.395351732727	837.627296432167	944.266623640438	533.986376789766	838.206072737760	957.737811209238	258.214195014793	900.929827307319	760.369179714917	518.529858368853	843.814625421262	645.972700736978	597.345335989310	933.705422714618	600.530387023344	523.343893183621	960.666720626793	519.812974326491	544.905803745249	847.818711387386	733.213470879430	288.309417383161	738.849488550399	634.403709799488	221.240950925631	802.059028485834	543.603518394540	286.081296686272	788.837349646400	477.403204750092	294.980410559339	757.364875338268	410.138835249485	285.552750441606	657.332891569248	304.864185382196	231.679613854476	696.464333583993	188.921850053919	304.243991964547	940.597326942560	431.028667512771	557.273335160017	879.353550203604	322.962605068265	623.380691047602	945.455742961462	231.494042492166	577.061999250919	842.951690757601	50.014135008247	554.704344523150	1010.460074347827	114.977749504150	594.057804774357	927.815287558971	43.568266951129	627.922313349849	1132.305815554572	70.770594592139	617.825406620247	558.057051416031	38.902346210417	346.346057060568	632.008887369900	34.642392095098	265.753300308319	716.208388051276	94.231430162512	292.930742135638	844.189759776611	41.129863204404	264.590977102253	793.447759256223	1123.538924018696	4.118148368550	983.324605215390	969.142300306180	-96.013964809628	723.310291489005	1138.578885286083	693.144170539547	761.984320391654	896.323576164318	781.696139548745	
75	24.844428571429	619.289223458135	1005.101223745980	404.546685057403	816.781652155421	1418.779425260995	205.264223195263	911.809535762649	1359.435247454869	374.114340694800	823.771576539803	1449.445234330434	538.697550325267	798.628543997226	1491.008870548357	366.478504930097	840.426103569028	943.019527545156	536.331594872819	840.632538759608	956.959231828489	260.498252155469	902.997407701878	758.193935007035	520.821431388565	843.896870941536	643.223921437441	597.614838901749	934.112595715921	598.373028469052	523.917135253500	959.658634463395	517.935073332358	543.910589147957	849.062194076558	732.008232275886	290.166022203585	739.092113378726	633.967327917366	222.881300476766	801.564405462773	542.606659302086	287.495709188774	787.964012499011	476.163653356313	296.177687936940	755.720720402693	409.173516367459	286.649906271832	654.568673269369	305.019611361360	232.548577879779	692.552774596043	188.439798043481	304.656170616951	940.945392165026	428.697860963711	556.156638197931	880.441561432403	319.669818540044	621.241846819391	947.633236511458	229.126161783712	574.569534039607	846.595897742209	47.338526367056	551.866101019349	1013.768558353324	113.061292841076	590.102231839410	931.861364534886	41.518098730263	624.645413895680	1136.213041486141	69.655777387458	613.205847181344	553.091749782390	38.887546940490	346.310977790079	627.048745362863	34.608427947580	265.807955710897	711.260382746435	94.209945060985	293.020039354886	839.237330275961	40.983186651386	264.575231578761	794.833450655449	1123.528741910142	6.169209041105	985.519519447786	970.587114958931	-94.561475942248	724.804156450635	1137.717758129603	696.324614290597	764.418784559907	896.018627247993	785.946718043331	
76	24.856785714286	622.108030526617	1003.369477120861	407.565883128269	817.018896110181	1418.103975931744	208.349125327273	912.747905727474	1359.014727408164	376.881064674095	824.755555817151	1448.428283535684	541.808362489801	798.977567900907	1490.036932300988	369.749109194812	843.467637039367	941.722144857505	538.762458742047	843.181061378852	956.163829348903	262.919268740009	905.604821642531	756.141730834335	523.115853104343	844.499413984741	640.519417669996	597.625674870033	935.158782217703	596.394854545107	524.331080525992	959.087026753024	515.827709813936	542.697546434415	850.671695272598	730.806260399676	292.076680555033	739.715860941813	633.450876963625	224.699121120003	801.599043052362	541.539429167060	289.007296142216	787.696535045022	474.758947183873	297.462865663423	754.502147207758	408.076168848972	287.841503320860	652.067915372546	305.212025779084	233.541846764708	688.777969052066	187.930886326630	305.117255576486	941.308610146667	426.119979351927	554.822232203547	880.944832045814	316.503070086204	618.876272054237	948.546510839575	226.510110569548	571.805686713217	847.744610788054	45.251792764291	548.779168278756	1014.846786615040	110.787618554935	585.977924150695	933.196291296870	39.874145181476	621.306249341718	1137.580221737938	67.520945872632	608.856352484218	548.121530977192	38.916404744700	346.282997883269	622.099727275136	34.588152309789	265.879128304894	706.344489669512	94.205776546088	293.115435328528	834.307332754375	40.811224546947	264.544248686005	795.956587635592	1123.269378543829	8.651245720044	987.319503548598	971.598813761809	-92.649960739318	726.714106617806	1136.645958837585	699.685506578728	767.702912113761	895.455371982902	790.055684597344	
77	24.869142857143	625.011488497358	1001.622980045938	410.812397987243	817.149188815789	1417.425539655051	211.616507686855	913.711976979628	1358.649949774215	379.781843599260	825.788934879683	1447.392562444154	545.109481379856	799.327770173710	1489.076912821867	373.193703119336	846.717130210022	940.420296034407	541.262121796154	845.808500774270	955.387583118169	265.456604112710	908.695889325110	754.245929649800	525.368569923904	845.643290647374	637.982137942029	597.479280357095	936.791752604471	594.622658305646	524.627351717579	958.985061779509	513.572225588590	541.368271190617	852.636806319404	729.646372968522	294.028386778980	740.739789638863	632.859570408836	226.683371435982	802.223336350171	540.418297050482	290.597818164896	788.110142025324	473.189561834896	298.802000238239	753.760855978685	406.860956106812	289.108388872834	649.871385559855	305.475261436705	234.656891668961	685.170111794244	187.426051320950	305.616517463510	941.750937006311	423.417438601857	553.392351318222	881.080416517652	313.551217406288	616.551043632754	948.418162146161	223.749834089631	568.984966755938	846.741365993132	43.692968119487	545.756922874225	1014.024773179494	108.309470302188	581.971070331307	932.221561933433	38.619121093366	618.184181140114	1136.805582901558	64.621520756983	604.957327324893	543.158636588921	39.063488312633	346.259236003774	617.173304561389	34.614808633633	265.964200987327	701.494774646223	94.225862152076	293.204569345394	829.408592832084	40.609982307401	264.493092337577	796.808205468193	1122.769685126245	11.572154286760	988.708144128924	972.174799169262	-90.281150738823	729.036319124583	1135.393042701205	703.201649571747	771.833082589857	894.661508731103	793.994347497391	
